Patient4_TMGait_0pt7_01_right_15_EMG.mot
version=1
nRows=30
nColumns=33
inDegrees=no
endheader
time	1LAddLong	2LGlutMax	3LGlutMed	4LIliopsoas	5LSemiMemb	6LBicFemLong	7LRecFem	8LVastMed	9LVastLat	10LGasMed	11LTibAnt	12lTibPost	13LPeroneusLong	14LSol	15LExtDigLong	16LFlexDigLong	17RAddLong	18RGlutMax	19RGlutMed	20RIliopsoas	21RSemiMemb	22RBicFemLong	23RRecFem	24RVastMed	25RVastLat	26RGasMed	27RTibAnt	28RTibPost	29RPeroneusLong	30RSol	31RExtDigLong	32RFlexDigLong
16.64	0.02243	-0.2681	0.009918	0.006256	0.033569	-0.009308	-0.103	-0.037079	0.20203	0.11368	-0.00061	0.030518	-0.15884	0.25971	0.02655	0.00946	0.050812	-0.30319	-0.073395	0.052643	0.073395	0.99167	0.1506	-0.19806	-0.042572	0.004425	-0.63324	-0.007019	0.19898	-0.073547	0.000763	-0.013123
16.641	0.017853	-0.24185	0.052948	0.025635	0.010529	-0.029144	-0.065918	-0.048523	0.23621	0.12863	0.000153	0.011139	-0.46616	0.035553	-0.14771	0.035248	0.067291	-0.31937	0.071716	0.004272	0.074921	1.2044	0.13534	-0.20767	-0.040131	0.004272	-0.28168	-0.001221	0.034027	-0.025177	0.001373	-0.002747
16.642	0.00351	-0.25589	-0.030212	0.024719	0.042419	0.008087	0.067444	-0.05127	0.17517	0.060272	0.036774	0.011749	0.069885	0.039978	-0.11276	0.000763	0.10559	-0.35294	0.11887	-0.010223	0.072784	1.436	0.16251	-0.27023	-0.041962	0.005646	-0.18021	-0.006561	-0.053101	-0.053864	0.006866	-0.003967
16.643	-0.007935	-0.25131	-0.07782	-0.00473	0.030212	0.058746	0.034943	-0.044861	0.1033	-0.073242	-0.058289	0.009003	-0.000458	0.098267	-0.12116	0.000305	0.062256	-0.30365	0.13733	-0.079346	0.064697	1.5485	0.13916	-0.25024	-0.04364	-0.001068	0.15182	-0.008698	-0.10849	-0.089569	0.001221	-0.011749
16.644	-0.011444	-0.30701	-0.042419	-0.007019	0.002136	0.065765	-0.065308	-0.031281	0.063019	-0.029297	-0.039673	-0.012665	0.41306	0.090637	0.000916	-0.000305	-0.05127	-0.31906	0.3743	-0.036774	0.062256	1.5091	0.097809	-0.17471	-0.042572	0.004883	0.69305	-0.004425	-0.062256	-0.18234	0.001068	-0.015106
16.645	-0.010223	-0.28656	-0.026245	0.006561	0.008545	0.089111	-0.020142	-0.016022	0.008698	-0.018463	0.037537	0.003204	0.30685	-0.056915	0.15656	-0.007324	-0.11871	-0.32944	0.09079	0.21973	0.073547	1.3873	0.13519	-0.19257	-0.033569	0.010529	-0.18097	-0.010376	0.003815	-0.25192	-0.00061	-0.011292
16.646	-0.012817	-0.34561	-0.051117	0.030823	0.004272	0.070648	0.069733	-0.002441	-0.13184	-0.009918	0.09552	0.010834	-0.062866	0.024414	0.082703	-0.010834	-0.14496	-0.33768	-0.18188	0.27145	0.10544	1.2471	0.11871	-0.11566	-0.049133	0.005035	-0.22568	-0.006256	-0.10178	-0.16724	0.001526	-0.013733
16.647	0.000916	-0.33188	-0.02243	0.012512	0.006561	0.044556	-0.084991	0.019836	-0.15442	0.052643	0.23254	0.025482	-0.16342	0.054932	0.20889	-0.009613	-0.13001	-0.34012	-0.37308	0.15625	0.11566	1.1099	0.069733	-0.11307	-0.037384	-0.003357	-0.024719	-0.007477	-0.075226	-0.021973	0.001526	-0.013275
16.648	0.005646	-0.33218	-0.05722	-0.00412	0.005646	0.027161	-0.073395	0.041656	-0.07782	0.085297	0.23193	0.016327	0.003204	0.037689	0.1265	-0.002899	-0.06012	-0.31876	-0.31479	0.09613	0.14084	0.91522	0.112	-0.09613	-0.051117	-0.005188	-0.046082	-0.012207	-0.094299	0.090179	0.002441	-0.013428
16.649	0.003662	-0.31586	-0.039825	-0.013733	-0.003052	-0.020752	-0.008392	0.018616	-0.022278	0.090027	0.17059	0.010529	0.21957	0.09613	0.23071	-0.009003	-0.02243	-0.32013	0.023804	0.050201	0.1059	0.80246	0.24674	-0.054474	-0.061035	-0.004425	-0.10819	-0.006866	-0.085907	0.040283	0.001831	-0.010071
16.65	0.010376	-0.33676	-0.03418	-0.01236	-0.000916	-0.011292	-0.028687	-0.02243	0.12772	0.10696	0.047302	0.007629	-0.10666	0.1561	0.093384	0	-0.009155	-0.33615	0.43137	-0.023041	0.092316	0.62592	0.24246	-0.028534	-0.061951	-0.001526	-0.024872	-0.00885	-0.103	0.00412	0.002594	-0.002136
16.651	-0.005493	-0.31723	-0.050354	-0.015869	-0.007782	0.016632	0.004425	-0.028229	0.13367	0.071869	-0.22858	0.014954	-0.048065	0.021057	0.103	0.005035	-0.016327	-0.35049	0.93445	-0.11154	0.11154	0.52765	0.22903	0.048065	-0.062714	-0.007629	0.003052	-0.005035	-0.096436	0.054016	-0.000305	-0.007477
16.652	-0.004425	-0.33127	-0.054169	0.005493	-0.00473	0.058594	0.10468	-0.023804	0.14923	0.048218	-0.2356	0.008087	0.19867	-0.14648	-0.02594	0.00061	0.010223	-0.40619	1.4348	-0.16907	0.17822	0.38361	0.14389	-0.018463	-0.076904	0.003967	-0.11185	-0.003052	0.10208	-0.007629	0.000305	-0.007019
16.653	-0.005188	-0.37354	-0.027924	0.003052	0.001831	0.022125	0.14954	-0.00351	0.11307	0.060272	-0.076599	0.016937	0.06958	-0.19073	-0.048218	-0.012665	0.00473	-0.48233	0.60532	-0.17166	0.16342	0.22858	0.12039	-0.009766	-0.04715	0	-0.1236	-0.006714	0.30456	-0.067291	0.002594	-0.005951
16.654	-0.002289	-0.37796	-0.025177	0.015869	0.000916	0.036011	0.17838	0.002747	0.083771	0.089417	-0.040131	0.00885	0.059509	-0.1149	-0.18005	-0.010223	0.015259	-0.5127	0.22446	-0.15701	0.1535	0.10361	0.13626	-0.042877	-0.05249	-0.002441	-0.14557	-0.002899	0.26199	0.026093	0.002289	-0.002289
16.655	-0.003357	-0.34561	-0.047607	-0.003967	0.018311	0.043182	0.11978	0.002899	0.090485	0.06073	-0.014648	0.013275	0.13763	-0.083008	-0.26703	-0.016479	0.009613	-0.47043	0.37506	-0.2298	0.12177	0.022278	0.12207	-0.081329	-0.059662	-0.011749	-0.36224	-0.009308	0.13321	0.090179	-0.001526	-0.012054
16.656	0.008392	-0.28366	-0.04776	0.007172	0.008087	0.062408	0.084229	0.010681	0.092773	0.084991	0.048523	0.003967	-0.44403	-0.049133	-0.22308	-0.014191	-0.002136	-0.39795	0.005951	-0.16953	0.072021	-0.046997	0.13138	-0.065765	-0.06073	-0.022278	-0.3244	-0.006256	0.031281	0.02243	0.000458	-0.012207
16.657	-0.004883	-0.28885	-0.10773	-0.00946	0.002441	0.071259	0.12878	0.014191	0.094299	0.10346	-0.05661	0.005188	-0.3952	0.063934	-0.23224	-0.009155	-0.001526	-0.35309	-0.052795	-0.14694	0.054779	-0.097198	0.071716	-0.0383	-0.032349	-0.016785	0.041656	-0.006714	0.077209	-0.021362	-0.00061	-0.011139
16.658	0.006866	-0.28671	-0.20523	0.011139	0.003357	0.036469	0.092468	-0.002136	0.075378	0.064545	-0.12222	0.016022	1.1653	0.09491	-0.10941	-0.010834	0.007782	-0.38193	0.13397	-0.10529	-0.033264	-0.15411	0.027008	-0.037994	-0.036621	-0.015717	0.11414	-0.007324	0.092926	-0.022888	0.000763	-0.013885
16.659	-0.006409	-0.29373	-0.224	0.020142	0	0.022125	0.093079	0.000763	0.075226	0.013885	-0.11978	0.012512	0.67047	0.046539	-0.22446	-0.011139	0.044098	-0.37109	0.27069	0.009918	-0.057526	-0.224	0.077362	-0.05722	-0.052948	-0.00824	-0.028381	-0.005646	0.17319	-0.048981	0.001068	-0.014038
16.66	-0.002136	-0.24429	0.052338	0.014191	-0.001373	0.015869	0.14023	0.01358	0.10574	-0.023804	-0.061188	0.03891	-0.5957	0.16083	-0.112	-0.018921	0.075378	-0.3331	0.18906	0.027924	-0.033264	-0.2742	0.10513	-0.087128	-0.028229	-0.016327	0.19073	-0.003204	0.1001	-0.077362	0.006104	-0.011292
16.661	-0.010529	-0.24139	0.12238	0.019226	-0.012817	0.014038	0.11871	0.011139	0.093536	0.007019	0.10666	0.013733	-0.40115	0.15411	0.36575	-0.012512	0.05661	-0.32669	0.17624	0.062103	-0.097656	-0.32028	0.17914	-0.10147	-0.040894	-0.015411	0.42496	-0.005493	-0.093689	-0.047302	0.003204	-0.015106
16.662	-0.011292	-0.2626	0.028381	0.014954	-0.037537	0.018158	0.10834	-0.009308	0.10361	0.021973	0.27435	0.014801	0.055542	0.34668	0.60425	-0.015259	0.058899	-0.31799	0.080719	0.083771	-0.12344	-0.35767	0.24506	-0.13382	-0.043182	-0.015259	0.42099	-0.010071	-0.16602	-0.076447	-0.000458	0.000916
16.663	-0.006866	-0.24429	0.076599	-0.012512	-0.038452	0.007935	0.085907	-0.003052	0.12085	-0.002747	0.016022	0.017242	-0.07019	0.224	0.72022	0.002136	0.039825	-0.32867	0.11688	-0.032959	-0.14572	-0.37384	0.16007	-0.10803	-0.059662	-0.013733	0.41245	-0.00412	-0.20157	-0.049591	-0.000305	-0.003357
16.664	-0.012054	-0.24475	0.010681	0.023193	-0.007324	-0.040283	0.089111	-0.004272	0.078583	0.024109	0.083008	0.003662	-0.26566	-0.038757	0.30487	-0.01358	-0.023499	-0.31097	0.22293	-0.029755	-0.039063	-0.40344	0.10162	-0.12741	-0.054932	-0.006714	0.59525	-0.004883	-0.18967	0.014954	-0.004578	-0.008392
16.665	0.00885	-0.24536	-0.040741	0.017548	0.005798	-0.026093	0.093842	-0.005646	0.04837	0.049133	0.26413	0.02121	0.1297	-0.17746	-0.44022	-0.01236	-0.049438	-0.3215	0.23193	0.045166	0.095062	-0.44083	0.14084	-0.088043	-0.036011	-0.010529	0.37933	-0.000916	-0.08194	0.029297	0.001068	0.000916
16.666	-0.001068	-0.23178	0.044708	0.013123	-0.029907	0.023041	0.094147	0.00473	0.076599	0.040894	0.083313	0.01297	0.65033	-0.2301	-0.3627	-0.02243	-0.016479	-0.28198	0.16525	0.16922	0.051575	-0.44479	0.085297	-0.005341	-0.022583	-0.012817	-0.22446	-0.004883	-0.08194	0.005035	0.003967	-0.000305
16.667	0.00885	-0.18082	0.056915	-0.001678	-0.06134	0.070343	0.015411	0.000763	0.21729	0.013885	-0.039063	0.018463	0.60944	-0.078735	-0.4921	-0.015717	0.042572	-0.26504	0.21103	0.10681	0.001373	-0.45456	0.13794	-0.016785	-0.016022	-0.008698	-0.44952	-0.008545	0.033417	0.010223	0.001526	0.002441
16.668	0.012207	-0.19287	0.012817	-0.006714	-0.014191	0.080109	0.033722	0.003662	0.13443	-0.025177	-0.17425	0.01236	-0.18219	-0.030975	-0.81711	-0.016937	0.040588	-0.27649	0.16022	0.018921	-0.020447	-0.48065	0.080872	0.007629	0.010529	-0.008392	-0.32074	-0.005035	0.085602	0.000763	0.003052	-0.000916
16.669	0.010223	-0.15137	-0.014038	-0.003052	0.10208	0.023651	0.1178	-0.028992	0.071716	-0.030518	-0.093842	0.012207	-0.54291	-0.036011	-0.4393	-0.011292	0.006561	-0.29343	-0.16968	-0.005646	-0.001068	-0.44739	0.089722	0.009918	0.015259	-0.006561	-0.088043	-0.005798	0.028381	0.018463	0.003357	-0.005341
